<?xml version="1.0" encoding="utf-8"?>
<svg xmlns="http://www.w3.org/2000/svg" viewBox="0 0 285 35">
  <g transform="translate(-16.181, -49.013)">
    <path d="M 27.72 68.588 L 27.72 66.236 L 36.21 66.222 L 36.21 73.66 Q 34.255 75.219 32.177 76.005 Q 30.099 76.791 27.911 76.791 Q 24.958 76.791 22.545 75.526 Q 20.132 74.261 18.902 71.869 Q 17.671 69.476 17.671 66.523 Q 17.671 63.597 18.895 61.061 Q 20.118 58.525 22.415 57.295 Q 24.712 56.064 27.706 56.064 Q 29.88 56.064 31.637 56.768 Q 33.394 57.472 34.392 58.73 Q 35.39 59.988 35.91 62.011 L 33.517 62.668 Q 33.066 61.136 32.396 60.261 Q 31.726 59.386 30.482 58.86 Q 29.238 58.334 27.72 58.334 Q 25.902 58.334 24.576 58.887 Q 23.249 59.441 22.436 60.344 Q 21.622 61.246 21.171 62.326 Q 20.406 64.185 20.406 66.359 Q 20.406 69.039 21.328 70.844 Q 22.251 72.648 24.015 73.523 Q 25.779 74.398 27.761 74.398 Q 29.484 74.398 31.124 73.735 Q 32.765 73.072 33.613 72.32 L 33.613 68.588 Z M 47.921 74.658 Q 46.554 75.82 45.289 76.299 Q 44.024 76.777 42.575 76.777 Q 40.183 76.777 38.897 75.608 Q 37.612 74.439 37.612 72.621 Q 37.612 71.554 38.098 70.673 Q 38.583 69.791 39.369 69.258 Q 40.155 68.724 41.14 68.451 Q 41.864 68.26 43.327 68.082 Q 46.308 67.726 47.716 67.234 Q 47.729 66.728 47.729 66.592 Q 47.729 65.088 47.032 64.472 Q 46.089 63.638 44.229 63.638 Q 42.493 63.638 41.666 64.247 Q 40.839 64.855 40.442 66.4 L 38.036 66.072 Q 38.364 64.527 39.116 63.577 Q 39.868 62.627 41.29 62.114 Q 42.712 61.601 44.585 61.601 Q 46.444 61.601 47.606 62.039 Q 48.769 62.476 49.315 63.139 Q 49.862 63.803 50.081 64.814 Q 50.204 65.443 50.204 67.084 L 50.204 70.365 Q 50.204 73.797 50.361 74.706 Q 50.519 75.615 50.983 76.449 L 48.413 76.449 Q 48.03 75.683 47.921 74.658 Z M 47.716 69.162 Q 46.376 69.709 43.696 70.092 Q 42.179 70.31 41.55 70.584 Q 40.921 70.857 40.579 71.384 Q 40.237 71.91 40.237 72.553 Q 40.237 73.537 40.982 74.193 Q 41.728 74.849 43.163 74.849 Q 44.585 74.849 45.692 74.227 Q 46.8 73.605 47.319 72.525 Q 47.716 71.691 47.716 70.064 Z M 51.046 76.449 L 51.046 61.929 L 53.26 61.929 L 53.26 64.131 Q 54.108 62.586 54.826 62.094 Q 55.544 61.601 56.405 61.601 Q 57.649 61.601 58.934 62.394 L 58.087 64.678 Q 57.184 64.144 56.282 64.144 Q 55.475 64.144 54.833 64.63 Q 54.19 65.115 53.917 65.976 Q 53.506 67.289 53.506 68.847 L 53.506 76.449 Z M 70.537 71.773 L 73.08 72.088 Q 72.478 74.316 70.851 75.547 Q 69.224 76.777 66.695 76.777 Q 63.509 76.777 61.643 74.815 Q 59.777 72.853 59.777 69.312 Q 59.777 65.648 61.664 63.625 Q 63.55 61.601 66.558 61.601 Q 69.47 61.601 71.316 63.584 Q 73.162 65.566 73.162 69.162 Q 73.162 69.381 73.148 69.818 L 62.32 69.818 Q 62.457 72.211 63.673 73.482 Q 64.89 74.754 66.709 74.754 Q 68.062 74.754 69.019 74.043 Q 69.976 73.332 70.537 71.773 Z M 62.457 67.795 L 70.564 67.795 Q 70.4 65.963 69.634 65.047 Q 68.459 63.625 66.586 63.625 Q 64.89 63.625 63.735 64.76 Q 62.58 65.894 62.457 67.795 Z M 78.597 74.248 L 78.952 76.422 Q 77.913 76.64 77.093 76.64 Q 75.753 76.64 75.015 76.217 Q 74.277 75.793 73.976 75.102 Q 73.675 74.412 73.675 72.197 L 73.675 63.844 L 71.87 63.844 L 71.87 61.929 L 73.675 61.929 L 73.675 58.334 L 76.122 56.857 L 76.122 61.929 L 78.597 61.929 L 78.597 63.844 L 76.122 63.844 L 76.122 72.334 Q 76.122 73.386 76.252 73.687 Q 76.382 73.988 76.676 74.166 Q 76.97 74.344 77.517 74.344 Q 77.927 74.344 78.597 74.248 Z M 81.203 76.449 L 81.203 56.406 L 83.664 56.406 L 83.664 63.597 Q 85.387 61.601 88.012 61.601 Q 89.625 61.601 90.814 62.237 Q 92.004 62.873 92.516 63.994 Q 93.029 65.115 93.029 67.248 L 93.029 76.449 L 90.568 76.449 L 90.568 67.248 Q 90.568 65.402 89.768 64.561 Q 88.969 63.72 87.506 63.72 Q 86.412 63.72 85.448 64.288 Q 84.484 64.855 84.074 65.826 Q 83.664 66.797 83.664 68.506 L 83.664 76.449 Z M 210.969 76.449 L 210.969 56.406 L 225.461 56.406 L 225.461 58.771 L 213.621 58.771 L 213.621 64.91 L 224.709 64.91 L 224.709 67.261 L 213.621 67.261 L 213.621 74.084 L 225.926 74.084 L 225.926 76.449 Z M 231.935 76.449 L 226.412 61.929 L 229.009 61.929 L 232.126 70.625 Q 232.632 72.033 233.056 73.551 Q 233.384 72.402 233.972 70.789 L 237.199 61.929 L 239.728 61.929 L 234.232 76.449 Z M 251.577 74.658 Q 250.209 75.82 248.945 76.299 Q 247.68 76.777 246.231 76.777 Q 243.838 76.777 242.553 75.608 Q 241.268 74.439 241.268 72.621 Q 241.268 71.554 241.753 70.673 Q 242.239 69.791 243.025 69.258 Q 243.811 68.724 244.795 68.451 Q 245.52 68.26 246.983 68.082 Q 249.963 67.726 251.371 67.234 Q 251.385 66.728 251.385 66.592 Q 251.385 65.088 250.688 64.472 Q 249.745 63.638 247.885 63.638 Q 246.149 63.638 245.322 64.247 Q 244.495 64.855 244.098 66.4 L 241.692 66.072 Q 242.02 64.527 242.772 63.577 Q 243.524 62.627 244.946 62.114 Q 246.368 61.601 248.241 61.601 Q 250.1 61.601 251.262 62.039 Q 252.424 62.476 252.971 63.139 Q 253.518 63.803 253.737 64.814 Q 253.86 65.443 253.86 67.084 L 253.86 70.365 Q 253.86 73.797 254.017 74.706 Q 254.174 75.615 254.639 76.449 L 252.069 76.449 Q 251.686 75.683 251.577 74.658 Z M 251.371 69.162 Q 250.032 69.709 247.352 70.092 Q 245.834 70.31 245.205 70.584 Q 244.577 70.857 244.235 71.384 Q 243.893 71.91 243.893 72.553 Q 243.893 73.537 244.638 74.193 Q 245.383 74.849 246.819 74.849 Q 248.241 74.849 249.348 74.227 Q 250.455 73.605 250.975 72.525 Q 251.371 71.691 251.371 70.064 Z M 254.73 76.449 L 254.73 61.929 L 256.945 61.929 L 256.945 63.994 Q 258.545 61.601 261.566 61.601 Q 262.879 61.601 263.979 62.073 Q 265.08 62.545 265.627 63.31 Q 266.174 64.076 266.392 65.129 Q 266.529 65.812 266.529 67.521 L 266.529 76.449 L 264.068 76.449 L 264.068 67.617 Q 264.068 66.113 263.781 65.368 Q 263.494 64.623 262.762 64.178 Q 262.031 63.734 261.047 63.734 Q 259.474 63.734 258.333 64.732 Q 257.191 65.73 257.191 68.519 L 257.191 76.449 Z M 267.944 72.115 L 270.378 71.732 Q 270.583 73.195 271.52 73.974 Q 272.456 74.754 274.138 74.754 Q 275.833 74.754 276.653 74.063 Q 277.474 73.373 277.474 72.443 Q 277.474 71.609 276.749 71.131 Q 276.243 70.803 274.233 70.297 Q 271.526 69.613 270.48 69.114 Q 269.435 68.615 268.895 67.733 Q 268.354 66.851 268.354 65.785 Q 268.354 64.814 268.799 63.987 Q 269.243 63.16 270.009 62.613 Q 270.583 62.189 271.574 61.895 Q 272.565 61.601 273.7 61.601 Q 275.409 61.601 276.701 62.094 Q 277.993 62.586 278.608 63.427 Q 279.224 64.267 279.456 65.676 L 277.05 66.004 Q 276.886 64.883 276.1 64.254 Q 275.313 63.625 273.878 63.625 Q 272.183 63.625 271.458 64.185 Q 270.733 64.746 270.733 65.498 Q 270.733 65.976 271.034 66.359 Q 271.335 66.756 271.978 67.015 Q 272.347 67.152 274.151 67.644 Q 276.763 68.342 277.795 68.786 Q 278.827 69.23 279.415 70.078 Q 280.003 70.926 280.003 72.183 Q 280.003 73.414 279.285 74.501 Q 278.567 75.588 277.214 76.182 Q 275.86 76.777 274.151 76.777 Q 271.321 76.777 269.838 75.601 Q 268.354 74.426 267.944 72.115 Z" style="fill: rgb(113, 113, 122); text-wrap-mode: nowrap;"/>
    <path d="M 111.542 69.08 L 111.542 65.703 L 120.265 65.703 L 120.265 73.687 Q 118.993 74.918 116.58 75.854 Q 114.167 76.791 111.693 76.791 Q 108.548 76.791 106.21 75.471 Q 103.872 74.152 102.697 71.698 Q 101.521 69.244 101.521 66.359 Q 101.521 63.228 102.833 60.795 Q 104.146 58.361 106.675 57.062 Q 108.603 56.064 111.474 56.064 Q 115.206 56.064 117.305 57.63 Q 119.404 59.195 120.005 61.957 L 115.986 62.709 Q 115.562 61.232 114.393 60.378 Q 113.224 59.523 111.474 59.523 Q 108.822 59.523 107.256 61.205 Q 105.691 62.886 105.691 66.195 Q 105.691 69.763 107.277 71.548 Q 108.863 73.332 111.433 73.332 Q 112.704 73.332 113.983 72.833 Q 115.261 72.334 116.177 71.623 L 116.177 69.08 Z M 126.675 76.449 L 122.081 61.929 L 125.814 61.929 L 128.534 71.445 L 131.036 61.929 L 134.741 61.929 L 137.161 71.445 L 139.937 61.929 L 143.724 61.929 L 139.062 76.449 L 135.37 76.449 L 132.868 67.111 L 130.407 76.449 Z M 144.188 59.961 L 144.188 56.406 L 148.03 56.406 L 148.03 59.961 Z M 144.188 76.449 L 144.188 61.929 L 148.03 61.929 L 148.03 76.449 Z M 151.968 76.449 L 151.968 56.406 L 155.81 56.406 L 155.81 76.449 Z M 157.929 61.929 L 162.017 61.929 L 165.49 72.238 L 168.88 61.929 L 172.859 61.929 L 167.732 75.902 L 166.816 78.431 Q 166.31 79.703 165.852 80.373 Q 165.394 81.043 164.799 81.46 Q 164.204 81.877 163.336 82.109 Q 162.468 82.342 161.374 82.342 Q 160.267 82.342 159.201 82.109 L 158.859 79.101 Q 159.761 79.279 160.486 79.279 Q 161.826 79.279 162.468 78.493 Q 163.111 77.707 163.452 76.49 Z M 173.459 61.929 L 177 61.929 L 177 63.912 Q 178.901 61.601 181.526 61.601 Q 182.92 61.601 183.946 62.176 Q 184.971 62.75 185.627 63.912 Q 186.584 62.75 187.692 62.176 Q 188.799 61.601 190.057 61.601 Q 191.657 61.601 192.764 62.251 Q 193.872 62.9 194.418 64.158 Q 194.815 65.088 194.815 67.166 L 194.815 76.449 L 190.973 76.449 L 190.973 68.15 Q 190.973 65.99 190.577 65.361 Q 190.043 64.541 188.936 64.541 Q 188.129 64.541 187.418 65.033 Q 186.707 65.525 186.393 66.475 Q 186.079 67.426 186.079 69.476 L 186.079 76.449 L 182.237 76.449 L 182.237 68.492 Q 182.237 66.373 182.032 65.758 Q 181.827 65.142 181.396 64.842 Q 180.965 64.541 180.227 64.541 Q 179.338 64.541 178.627 65.019 Q 177.916 65.498 177.609 66.4 Q 177.301 67.303 177.301 69.394 L 177.301 76.449 L 173.459 76.449 Z" style="fill: rgb(24, 24, 27); text-wrap-mode: nowrap;"/>
  </g>
</svg>