<?xml version="1.0" encoding="utf-8"?>
<svg xmlns="http://www.w3.org/2000/svg" viewBox="0 0 285 35">
  <g transform="translate(-16.181, -49.013)">
    <path d="M 27.72 68.588 L 27.72 66.236 L 36.21 66.222 L 36.21 73.66 Q 34.255 75.219 32.177 76.005 Q 30.099 76.791 27.911 76.791 Q 24.958 76.791 22.545 75.526 Q 20.132 74.261 18.902 71.869 Q 17.671 69.476 17.671 66.523 Q 17.671 63.597 18.895 61.061 Q 20.118 58.525 22.415 57.295 Q 24.712 56.064 27.706 56.064 Q 29.88 56.064 31.637 56.768 Q 33.394 57.472 34.392 58.73 Q 35.39 59.988 35.91 62.011 L 33.517 62.668 Q 33.066 61.136 32.396 60.261 Q 31.726 59.386 30.482 58.86 Q 29.238 58.334 27.72 58.334 Q 25.902 58.334 24.576 58.887 Q 23.249 59.441 22.436 60.344 Q 21.622 61.246 21.171 62.326 Q 20.406 64.185 20.406 66.359 Q 20.406 69.039 21.328 70.844 Q 22.251 72.648 24.015 73.523 Q 25.779 74.398 27.761 74.398 Q 29.484 74.398 31.124 73.735 Q 32.765 73.072 33.613 72.32 L 33.613 68.588 Z M 47.72 74.658 Q 46.353 75.82 45.088 76.299 Q 43.823 76.777 42.374 76.777 Q 39.982 76.777 38.696 75.608 Q 37.411 74.439 37.411 72.621 Q 37.411 71.554 37.897 70.673 Q 38.382 69.791 39.168 69.258 Q 39.954 68.724 40.939 68.451 Q 41.663 68.26 43.126 68.082 Q 46.107 67.726 47.515 67.234 Q 47.528 66.728 47.528 66.592 Q 47.528 65.088 46.831 64.472 Q 45.888 63.638 44.028 63.638 Q 42.292 63.638 41.465 64.247 Q 40.638 64.855 40.241 66.4 L 37.835 66.072 Q 38.163 64.527 38.915 63.577 Q 39.667 62.627 41.089 62.114 Q 42.511 61.601 44.384 61.601 Q 46.243 61.601 47.405 62.039 Q 48.567 62.476 49.114 63.139 Q 49.661 63.803 49.88 64.814 Q 50.003 65.443 50.003 67.084 L 50.003 70.365 Q 50.003 73.797 50.16 74.706 Q 50.317 75.615 50.782 76.449 L 48.212 76.449 Q 47.829 75.683 47.72 74.658 Z M 47.515 69.162 Q 46.175 69.709 43.495 70.092 Q 41.978 70.31 41.349 70.584 Q 40.72 70.857 40.378 71.384 Q 40.036 71.91 40.036 72.553 Q 40.036 73.537 40.781 74.193 Q 41.526 74.849 42.962 74.849 Q 44.384 74.849 45.491 74.227 Q 46.599 73.605 47.118 72.525 Q 47.515 71.691 47.515 70.064 Z M 50.647 76.449 L 50.647 61.929 L 52.862 61.929 L 52.862 64.131 Q 53.709 62.586 54.427 62.094 Q 55.145 61.601 56.006 61.601 Q 57.25 61.601 58.535 62.394 L 57.688 64.678 Q 56.785 64.144 55.883 64.144 Q 55.076 64.144 54.434 64.63 Q 53.791 65.115 53.518 65.976 Q 53.108 67.289 53.108 68.847 L 53.108 76.449 Z M 69.937 71.773 L 72.48 72.088 Q 71.878 74.316 70.251 75.547 Q 68.624 76.777 66.095 76.777 Q 62.91 76.777 61.043 74.815 Q 59.177 72.853 59.177 69.312 Q 59.177 65.648 61.064 63.625 Q 62.951 61.601 65.958 61.601 Q 68.87 61.601 70.716 63.584 Q 72.562 65.566 72.562 69.162 Q 72.562 69.381 72.548 69.818 L 61.72 69.818 Q 61.857 72.211 63.074 73.482 Q 64.29 74.754 66.109 74.754 Q 67.462 74.754 68.419 74.043 Q 69.376 73.332 69.937 71.773 Z M 61.857 67.795 L 69.964 67.795 Q 69.8 65.963 69.035 65.047 Q 67.859 63.625 65.986 63.625 Q 64.29 63.625 63.135 64.76 Q 61.98 65.894 61.857 67.795 Z M 77.798 74.248 L 78.153 76.422 Q 77.114 76.64 76.294 76.64 Q 74.954 76.64 74.216 76.217 Q 73.477 75.793 73.177 75.102 Q 72.876 74.412 72.876 72.197 L 72.876 63.844 L 71.071 63.844 L 71.071 61.929 L 72.876 61.929 L 72.876 58.334 L 75.323 56.857 L 75.323 61.929 L 77.798 61.929 L 77.798 63.844 L 75.323 63.844 L 75.323 72.334 Q 75.323 73.386 75.453 73.687 Q 75.583 73.988 75.877 74.166 Q 76.171 74.344 76.718 74.344 Q 77.128 74.344 77.798 74.248 Z M 80.204 76.449 L 80.204 56.406 L 82.665 56.406 L 82.665 63.597 Q 84.388 61.601 87.013 61.601 Q 88.626 61.601 89.816 62.237 Q 91.005 62.873 91.518 63.994 Q 92.03 65.115 92.03 67.248 L 92.03 76.449 L 89.57 76.449 L 89.57 67.248 Q 89.57 65.402 88.77 64.561 Q 87.97 63.72 86.507 63.72 Q 85.413 63.72 84.449 64.288 Q 83.486 64.855 83.075 65.826 Q 82.665 66.797 82.665 68.506 L 82.665 76.449 Z M 206.569 76.449 L 206.569 56.406 L 221.061 56.406 L 221.061 58.771 L 209.221 58.771 L 209.221 64.91 L 220.309 64.91 L 220.309 67.261 L 209.221 67.261 L 209.221 74.084 L 221.526 74.084 L 221.526 76.449 Z M 227.336 76.449 L 221.812 61.929 L 224.41 61.929 L 227.527 70.625 Q 228.033 72.033 228.457 73.551 Q 228.785 72.402 229.373 70.789 L 232.599 61.929 L 235.129 61.929 L 229.633 76.449 Z M 246.776 74.658 Q 245.409 75.82 244.144 76.299 Q 242.88 76.777 241.43 76.777 Q 239.038 76.777 237.753 75.608 Q 236.468 74.439 236.468 72.621 Q 236.468 71.554 236.953 70.673 Q 237.438 69.791 238.224 69.258 Q 239.011 68.724 239.995 68.451 Q 240.72 68.26 242.182 68.082 Q 245.163 67.726 246.571 67.234 Q 246.585 66.728 246.585 66.592 Q 246.585 65.088 245.887 64.472 Q 244.944 63.638 243.085 63.638 Q 241.348 63.638 240.521 64.247 Q 239.694 64.855 239.298 66.4 L 236.891 66.072 Q 237.22 64.527 237.971 63.577 Q 238.723 62.627 240.145 62.114 Q 241.567 61.601 243.44 61.601 Q 245.3 61.601 246.462 62.039 Q 247.624 62.476 248.171 63.139 Q 248.718 63.803 248.936 64.814 Q 249.059 65.443 249.059 67.084 L 249.059 70.365 Q 249.059 73.797 249.217 74.706 Q 249.374 75.615 249.839 76.449 L 247.268 76.449 Q 246.886 75.683 246.776 74.658 Z M 246.571 69.162 Q 245.231 69.709 242.552 70.092 Q 241.034 70.31 240.405 70.584 Q 239.776 70.857 239.434 71.384 Q 239.093 71.91 239.093 72.553 Q 239.093 73.537 239.838 74.193 Q 240.583 74.849 242.018 74.849 Q 243.44 74.849 244.548 74.227 Q 245.655 73.605 246.175 72.525 Q 246.571 71.691 246.571 70.064 Z M 249.729 76.449 L 249.729 61.929 L 251.944 61.929 L 251.944 63.994 Q 253.543 61.601 256.565 61.601 Q 257.877 61.601 258.978 62.073 Q 260.078 62.545 260.625 63.31 Q 261.172 64.076 261.391 65.129 Q 261.528 65.812 261.528 67.521 L 261.528 76.449 L 259.067 76.449 L 259.067 67.617 Q 259.067 66.113 258.78 65.368 Q 258.492 64.623 257.761 64.178 Q 257.03 63.734 256.045 63.734 Q 254.473 63.734 253.331 64.732 Q 252.19 65.73 252.19 68.519 L 252.19 76.449 Z M 262.745 72.115 L 265.179 71.732 Q 265.384 73.195 266.32 73.974 Q 267.257 74.754 268.939 74.754 Q 270.634 74.754 271.454 74.063 Q 272.274 73.373 272.274 72.443 Q 272.274 71.609 271.55 71.131 Q 271.044 70.803 269.034 70.297 Q 266.327 69.613 265.281 69.114 Q 264.235 68.615 263.695 67.733 Q 263.155 66.851 263.155 65.785 Q 263.155 64.814 263.6 63.987 Q 264.044 63.16 264.81 62.613 Q 265.384 62.189 266.375 61.895 Q 267.366 61.601 268.501 61.601 Q 270.21 61.601 271.502 62.094 Q 272.794 62.586 273.409 63.427 Q 274.024 64.267 274.257 65.676 L 271.851 66.004 Q 271.687 64.883 270.9 64.254 Q 270.114 63.625 268.679 63.625 Q 266.983 63.625 266.259 64.185 Q 265.534 64.746 265.534 65.498 Q 265.534 65.976 265.835 66.359 Q 266.136 66.756 266.778 67.015 Q 267.147 67.152 268.952 67.644 Q 271.564 68.342 272.596 68.786 Q 273.628 69.23 274.216 70.078 Q 274.804 70.926 274.804 72.183 Q 274.804 73.414 274.086 74.501 Q 273.368 75.588 272.015 76.182 Q 270.661 76.777 268.952 76.777 Q 266.122 76.777 264.639 75.601 Q 263.155 74.426 262.745 72.115 Z" style="fill: rgb(161, 161, 170); text-wrap-mode: nowrap;"/>
    <path d="M 111.542 69.08 L 111.542 65.703 L 120.265 65.703 L 120.265 73.687 Q 118.993 74.918 116.58 75.854 Q 114.167 76.791 111.693 76.791 Q 108.548 76.791 106.21 75.471 Q 103.872 74.152 102.697 71.698 Q 101.521 69.244 101.521 66.359 Q 101.521 63.228 102.833 60.795 Q 104.146 58.361 106.675 57.062 Q 108.603 56.064 111.474 56.064 Q 115.206 56.064 117.305 57.63 Q 119.404 59.195 120.005 61.957 L 115.986 62.709 Q 115.562 61.232 114.393 60.378 Q 113.224 59.523 111.474 59.523 Q 108.822 59.523 107.256 61.205 Q 105.691 62.886 105.691 66.195 Q 105.691 69.763 107.277 71.548 Q 108.863 73.332 111.433 73.332 Q 112.704 73.332 113.983 72.833 Q 115.261 72.334 116.177 71.623 L 116.177 69.08 Z M 126.675 76.449 L 122.081 61.929 L 125.814 61.929 L 128.534 71.445 L 131.036 61.929 L 134.741 61.929 L 137.161 71.445 L 139.937 61.929 L 143.724 61.929 L 139.062 76.449 L 135.37 76.449 L 132.868 67.111 L 130.407 76.449 Z M 144.188 59.961 L 144.188 56.406 L 148.03 56.406 L 148.03 59.961 Z M 144.188 76.449 L 144.188 61.929 L 148.03 61.929 L 148.03 76.449 Z M 151.968 76.449 L 151.968 56.406 L 155.81 56.406 L 155.81 76.449 Z M 157.929 61.929 L 162.017 61.929 L 165.49 72.238 L 168.88 61.929 L 172.859 61.929 L 167.732 75.902 L 166.816 78.431 Q 166.31 79.703 165.852 80.373 Q 165.394 81.043 164.799 81.46 Q 164.204 81.877 163.336 82.109 Q 162.468 82.342 161.374 82.342 Q 160.267 82.342 159.201 82.109 L 158.859 79.101 Q 159.761 79.279 160.486 79.279 Q 161.826 79.279 162.468 78.493 Q 163.111 77.707 163.452 76.49 Z M 173.459 61.929 L 177 61.929 L 177 63.912 Q 178.901 61.601 181.526 61.601 Q 182.92 61.601 183.946 62.176 Q 184.971 62.75 185.627 63.912 Q 186.584 62.75 187.692 62.176 Q 188.799 61.601 190.057 61.601 Q 191.657 61.601 192.764 62.251 Q 193.872 62.9 194.418 64.158 Q 194.815 65.088 194.815 67.166 L 194.815 76.449 L 190.973 76.449 L 190.973 68.15 Q 190.973 65.99 190.577 65.361 Q 190.043 64.541 188.936 64.541 Q 188.129 64.541 187.418 65.033 Q 186.707 65.525 186.393 66.475 Q 186.079 67.426 186.079 69.476 L 186.079 76.449 L 182.237 76.449 L 182.237 68.492 Q 182.237 66.373 182.032 65.758 Q 181.827 65.142 181.396 64.842 Q 180.965 64.541 180.227 64.541 Q 179.338 64.541 178.627 65.019 Q 177.916 65.498 177.609 66.4 Q 177.301 67.303 177.301 69.394 L 177.301 76.449 L 173.459 76.449 Z" style="fill: rgb(244, 244, 245); text-wrap-mode: nowrap;"/>
  </g>
</svg>